# xmcd
#
# Track frame offsets:
#	180
#	11729
#	20438
#	31559
#	45274
#	60826
#	76799
#	92291
#	104638
#	118370
#	130344
#	141926
#	153111
#	167401
#	177999
#
# Disc length: 2581 seconds
#
# Revision: 0
# Processed by: cddbd v1.4PL0 Copyright (c) Steve Scherf et al.
# Submitted via: EasyCDDAExtractor 4.6.9.1
#
DISCID=aa0a130f
DTITLE=KBS 가요무대 - CD4
DYEAR=2001
DGENRE=Oldies
TTITLE0=청춘고백
TTITLE1=무너진 사랑탑
TTITLE2=아빠의 청춘
TTITLE3=만리포 사랑
TTITLE4=해조곡
TTITLE5=홍도야 울지마라
TTITLE6=목포는 항구다
TTITLE7=봄날은 간다
TTITLE8=나 하나의 사랑
TTITLE9=하숙생
TTITLE10=닐리리 맘보
TTITLE11=님과 함께
TTITLE12=단장의 미아리 고개
TTITLE13=바다의 교향시
TTITLE14=외나무 다리
EXTD=
EXTT0=
EXTT1=
EXTT2=
EXTT3=
EXTT4=
EXTT5=
EXTT6=
EXTT7=
EXTT8=
EXTT9=
EXTT10=
EXTT11=
EXTT12=
EXTT13=
EXTT14=
PLAYORDER=
